<mxfile host="app.diagrams.net" modified="2023-01-24T12:59:33.902Z" agent="5.0 (Windows NT 10.0; Win64; x64) AppleWebKit/537.36 (KHTML, like Gecko) Chrome/109.0.0.0 Safari/537.36" etag="PK1vgEBXUJAmbGjekbxz" version="20.8.10" type="github">
  <diagram id="C5RBs43oDa-KdzZeNtuy" name="Page-1">
    <mxGraphModel dx="2049" dy="1086" grid="1" gridSize="10" guides="1" tooltips="1" connect="1" arrows="1" fold="1" page="1" pageScale="1" pageWidth="827" pageHeight="1169" math="0" shadow="0">
      <root>
        <mxCell id="WIyWlLk6GJQsqaUBKTNV-0" />
        <mxCell id="WIyWlLk6GJQsqaUBKTNV-1" parent="WIyWlLk6GJQsqaUBKTNV-0" />
        <mxCell id="sGBRC4V-_0BXhq_6Xp6C-31" value="" style="edgeStyle=orthogonalEdgeStyle;rounded=0;orthogonalLoop=1;jettySize=auto;html=1;" edge="1" parent="WIyWlLk6GJQsqaUBKTNV-1" source="sGBRC4V-_0BXhq_6Xp6C-0" target="sGBRC4V-_0BXhq_6Xp6C-4">
          <mxGeometry relative="1" as="geometry" />
        </mxCell>
        <mxCell id="sGBRC4V-_0BXhq_6Xp6C-0" value="&lt;b&gt;START&lt;/b&gt;" style="ellipse;whiteSpace=wrap;html=1;" vertex="1" parent="WIyWlLk6GJQsqaUBKTNV-1">
          <mxGeometry x="355" y="260" width="120" height="80" as="geometry" />
        </mxCell>
        <mxCell id="sGBRC4V-_0BXhq_6Xp6C-29" value="" style="edgeStyle=orthogonalEdgeStyle;rounded=0;orthogonalLoop=1;jettySize=auto;html=1;" edge="1" parent="WIyWlLk6GJQsqaUBKTNV-1" source="sGBRC4V-_0BXhq_6Xp6C-2" target="sGBRC4V-_0BXhq_6Xp6C-5">
          <mxGeometry relative="1" as="geometry" />
        </mxCell>
        <mxCell id="sGBRC4V-_0BXhq_6Xp6C-2" value="&lt;b&gt;INPUT&lt;/b&gt;&lt;br&gt;a,b,c" style="shape=parallelogram;perimeter=parallelogramPerimeter;whiteSpace=wrap;html=1;fixedSize=1;" vertex="1" parent="WIyWlLk6GJQsqaUBKTNV-1">
          <mxGeometry x="355" y="485" width="120" height="60" as="geometry" />
        </mxCell>
        <mxCell id="sGBRC4V-_0BXhq_6Xp6C-3" value="&lt;b&gt;END&lt;/b&gt;" style="ellipse;whiteSpace=wrap;html=1;" vertex="1" parent="WIyWlLk6GJQsqaUBKTNV-1">
          <mxGeometry x="275" y="825" width="280" height="130" as="geometry" />
        </mxCell>
        <mxCell id="sGBRC4V-_0BXhq_6Xp6C-30" value="" style="edgeStyle=orthogonalEdgeStyle;rounded=0;orthogonalLoop=1;jettySize=auto;html=1;" edge="1" parent="WIyWlLk6GJQsqaUBKTNV-1" source="sGBRC4V-_0BXhq_6Xp6C-4" target="sGBRC4V-_0BXhq_6Xp6C-2">
          <mxGeometry relative="1" as="geometry" />
        </mxCell>
        <mxCell id="sGBRC4V-_0BXhq_6Xp6C-4" value="declare a,b,c" style="shape=hexagon;perimeter=hexagonPerimeter2;whiteSpace=wrap;html=1;fixedSize=1;" vertex="1" parent="WIyWlLk6GJQsqaUBKTNV-1">
          <mxGeometry x="355" y="365" width="120" height="80" as="geometry" />
        </mxCell>
        <mxCell id="sGBRC4V-_0BXhq_6Xp6C-8" style="edgeStyle=orthogonalEdgeStyle;rounded=0;orthogonalLoop=1;jettySize=auto;html=1;exitX=0;exitY=0.5;exitDx=0;exitDy=0;entryX=0.5;entryY=0;entryDx=0;entryDy=0;" edge="1" parent="WIyWlLk6GJQsqaUBKTNV-1" source="sGBRC4V-_0BXhq_6Xp6C-5" target="sGBRC4V-_0BXhq_6Xp6C-7">
          <mxGeometry relative="1" as="geometry" />
        </mxCell>
        <mxCell id="sGBRC4V-_0BXhq_6Xp6C-9" style="edgeStyle=orthogonalEdgeStyle;rounded=0;orthogonalLoop=1;jettySize=auto;html=1;exitX=1;exitY=0.5;exitDx=0;exitDy=0;entryX=0.5;entryY=0;entryDx=0;entryDy=0;" edge="1" parent="WIyWlLk6GJQsqaUBKTNV-1" source="sGBRC4V-_0BXhq_6Xp6C-5" target="sGBRC4V-_0BXhq_6Xp6C-6">
          <mxGeometry relative="1" as="geometry" />
        </mxCell>
        <mxCell id="sGBRC4V-_0BXhq_6Xp6C-5" value="a &amp;gt; b" style="rhombus;whiteSpace=wrap;html=1;" vertex="1" parent="WIyWlLk6GJQsqaUBKTNV-1">
          <mxGeometry x="378" y="575" width="80" height="80" as="geometry" />
        </mxCell>
        <mxCell id="sGBRC4V-_0BXhq_6Xp6C-19" style="edgeStyle=orthogonalEdgeStyle;rounded=0;orthogonalLoop=1;jettySize=auto;html=1;" edge="1" parent="WIyWlLk6GJQsqaUBKTNV-1" source="sGBRC4V-_0BXhq_6Xp6C-6">
          <mxGeometry relative="1" as="geometry">
            <mxPoint x="694" y="735" as="targetPoint" />
          </mxGeometry>
        </mxCell>
        <mxCell id="sGBRC4V-_0BXhq_6Xp6C-42" value="" style="edgeStyle=orthogonalEdgeStyle;rounded=0;orthogonalLoop=1;jettySize=auto;html=1;" edge="1" parent="WIyWlLk6GJQsqaUBKTNV-1" source="sGBRC4V-_0BXhq_6Xp6C-6" target="sGBRC4V-_0BXhq_6Xp6C-23">
          <mxGeometry relative="1" as="geometry" />
        </mxCell>
        <mxCell id="sGBRC4V-_0BXhq_6Xp6C-6" value="a &amp;gt; c" style="rhombus;whiteSpace=wrap;html=1;" vertex="1" parent="WIyWlLk6GJQsqaUBKTNV-1">
          <mxGeometry x="564" y="645" width="80" height="80" as="geometry" />
        </mxCell>
        <mxCell id="sGBRC4V-_0BXhq_6Xp6C-24" style="edgeStyle=orthogonalEdgeStyle;rounded=0;orthogonalLoop=1;jettySize=auto;html=1;" edge="1" parent="WIyWlLk6GJQsqaUBKTNV-1" source="sGBRC4V-_0BXhq_6Xp6C-7">
          <mxGeometry relative="1" as="geometry">
            <mxPoint x="134" y="735" as="targetPoint" />
          </mxGeometry>
        </mxCell>
        <mxCell id="sGBRC4V-_0BXhq_6Xp6C-41" value="" style="edgeStyle=orthogonalEdgeStyle;rounded=0;orthogonalLoop=1;jettySize=auto;html=1;" edge="1" parent="WIyWlLk6GJQsqaUBKTNV-1" source="sGBRC4V-_0BXhq_6Xp6C-7" target="sGBRC4V-_0BXhq_6Xp6C-23">
          <mxGeometry relative="1" as="geometry" />
        </mxCell>
        <mxCell id="sGBRC4V-_0BXhq_6Xp6C-7" value="b &amp;gt; c" style="rhombus;whiteSpace=wrap;html=1;" vertex="1" parent="WIyWlLk6GJQsqaUBKTNV-1">
          <mxGeometry x="184" y="645" width="80" height="80" as="geometry" />
        </mxCell>
        <mxCell id="sGBRC4V-_0BXhq_6Xp6C-10" value="TRUE" style="text;html=1;strokeColor=none;fillColor=none;align=center;verticalAlign=middle;whiteSpace=wrap;rounded=0;" vertex="1" parent="WIyWlLk6GJQsqaUBKTNV-1">
          <mxGeometry x="494" y="595" width="60" height="30" as="geometry" />
        </mxCell>
        <mxCell id="sGBRC4V-_0BXhq_6Xp6C-11" value="FALSE" style="text;html=1;strokeColor=none;fillColor=none;align=center;verticalAlign=middle;whiteSpace=wrap;rounded=0;" vertex="1" parent="WIyWlLk6GJQsqaUBKTNV-1">
          <mxGeometry x="274" y="595" width="60" height="30" as="geometry" />
        </mxCell>
        <mxCell id="sGBRC4V-_0BXhq_6Xp6C-39" style="edgeStyle=orthogonalEdgeStyle;rounded=0;orthogonalLoop=1;jettySize=auto;html=1;" edge="1" parent="WIyWlLk6GJQsqaUBKTNV-1" source="sGBRC4V-_0BXhq_6Xp6C-14" target="sGBRC4V-_0BXhq_6Xp6C-3">
          <mxGeometry relative="1" as="geometry" />
        </mxCell>
        <mxCell id="sGBRC4V-_0BXhq_6Xp6C-14" value="&lt;b style=&quot;border-color: var(--border-color);&quot;&gt;OUPUT a&lt;/b&gt;" style="shape=parallelogram;perimeter=parallelogramPerimeter;whiteSpace=wrap;html=1;fixedSize=1;" vertex="1" parent="WIyWlLk6GJQsqaUBKTNV-1">
          <mxGeometry x="634" y="735" width="120" height="60" as="geometry" />
        </mxCell>
        <mxCell id="sGBRC4V-_0BXhq_6Xp6C-20" value="FALSE" style="text;html=1;strokeColor=none;fillColor=none;align=center;verticalAlign=middle;whiteSpace=wrap;rounded=0;" vertex="1" parent="WIyWlLk6GJQsqaUBKTNV-1">
          <mxGeometry x="514" y="685" width="60" height="30" as="geometry" />
        </mxCell>
        <mxCell id="sGBRC4V-_0BXhq_6Xp6C-22" value="TRUE" style="text;html=1;strokeColor=none;fillColor=none;align=center;verticalAlign=middle;whiteSpace=wrap;rounded=0;" vertex="1" parent="WIyWlLk6GJQsqaUBKTNV-1">
          <mxGeometry x="634" y="685" width="60" height="30" as="geometry" />
        </mxCell>
        <mxCell id="sGBRC4V-_0BXhq_6Xp6C-37" style="edgeStyle=orthogonalEdgeStyle;rounded=0;orthogonalLoop=1;jettySize=auto;html=1;" edge="1" parent="WIyWlLk6GJQsqaUBKTNV-1" source="sGBRC4V-_0BXhq_6Xp6C-23" target="sGBRC4V-_0BXhq_6Xp6C-3">
          <mxGeometry relative="1" as="geometry" />
        </mxCell>
        <mxCell id="sGBRC4V-_0BXhq_6Xp6C-23" value="&lt;b&gt;OUPUT c&lt;/b&gt;" style="shape=parallelogram;perimeter=parallelogramPerimeter;whiteSpace=wrap;html=1;fixedSize=1;" vertex="1" parent="WIyWlLk6GJQsqaUBKTNV-1">
          <mxGeometry x="355" y="670" width="120" height="60" as="geometry" />
        </mxCell>
        <mxCell id="sGBRC4V-_0BXhq_6Xp6C-36" value="" style="edgeStyle=orthogonalEdgeStyle;rounded=0;orthogonalLoop=1;jettySize=auto;html=1;" edge="1" parent="WIyWlLk6GJQsqaUBKTNV-1" source="sGBRC4V-_0BXhq_6Xp6C-25" target="sGBRC4V-_0BXhq_6Xp6C-3">
          <mxGeometry relative="1" as="geometry" />
        </mxCell>
        <mxCell id="sGBRC4V-_0BXhq_6Xp6C-25" value="&lt;b&gt;OUPUT b&lt;/b&gt;" style="shape=parallelogram;perimeter=parallelogramPerimeter;whiteSpace=wrap;html=1;fixedSize=1;" vertex="1" parent="WIyWlLk6GJQsqaUBKTNV-1">
          <mxGeometry x="74" y="735" width="120" height="60" as="geometry" />
        </mxCell>
        <mxCell id="sGBRC4V-_0BXhq_6Xp6C-27" value="TRUE" style="text;html=1;strokeColor=none;fillColor=none;align=center;verticalAlign=middle;whiteSpace=wrap;rounded=0;" vertex="1" parent="WIyWlLk6GJQsqaUBKTNV-1">
          <mxGeometry x="134" y="685" width="60" height="30" as="geometry" />
        </mxCell>
        <mxCell id="sGBRC4V-_0BXhq_6Xp6C-28" value="FALSE" style="text;html=1;strokeColor=none;fillColor=none;align=center;verticalAlign=middle;whiteSpace=wrap;rounded=0;" vertex="1" parent="WIyWlLk6GJQsqaUBKTNV-1">
          <mxGeometry x="254" y="685" width="60" height="30" as="geometry" />
        </mxCell>
        <mxCell id="sGBRC4V-_0BXhq_6Xp6C-43" value="&lt;b&gt;&lt;font style=&quot;font-size: 24px;&quot;&gt;LARGEST AMONG THREE FLOWCHART&lt;/font&gt;&lt;/b&gt;" style="text;html=1;strokeColor=none;fillColor=none;align=center;verticalAlign=middle;whiteSpace=wrap;rounded=0;" vertex="1" parent="WIyWlLk6GJQsqaUBKTNV-1">
          <mxGeometry x="177" y="50" width="473.5" height="180" as="geometry" />
        </mxCell>
      </root>
    </mxGraphModel>
  </diagram>
</mxfile>
